<?xml version="1.0" standalone="no"?>
<!DOCTYPE svg PUBLIC "-//W3C//DTD SVG 20010904//EN"
 "http://www.w3.org/TR/2001/REC-SVG-20010904/DTD/svg10.dtd">
<svg version="1.0" xmlns="http://www.w3.org/2000/svg"
 width="700.000000pt" height="700.000000pt" viewBox="0 0 700.000000 700.000000"
 preserveAspectRatio="xMidYMid meet">
<metadata>
Created by potrace 1.11, written by Peter Selinger 2001-2013
</metadata>
<g transform="translate(0.000000,700.000000) scale(0.100000,-0.100000)"
fill="#000000" stroke="none">
<path d="M278 6993 c12 -2 30 -2 40 0 9 3 -1 5 -23 4 -22 0 -30 -2 -17 -4z"/>
<path d="M6688 6993 c12 -2 30 -2 40 0 9 3 -1 5 -23 4 -22 0 -30 -2 -17 -4z"/>
<path d="M180 6969 c-25 -11 -62 -37 -84 -57 -37 -36 -86 -122 -86 -152 0 -8
12 10 26 40 34 73 86 126 159 161 68 33 55 40 -15 8z"/>
<path d="M6805 6961 c73 -35 125 -88 159 -161 14 -30 26 -48 26 -40 0 30 -49
116 -86 152 -38 36 -114 77 -144 78 -8 0 12 -13 45 -29z"/>
<path d="M279 6960 c-98 -17 -189 -92 -225 -186 -19 -48 -19 -126 -19 -3274 0
-3155 0 -3226 19 -3275 25 -65 94 -137 159 -166 l52 -24 3235 0 3235 0 52 24
c65 29 134 101 159 166 19 49 19 120 19 3275 0 3155 0 3226 -19 3275 -25 65
-94 137 -159 166 l-52 24 -3205 1 c-1763 1 -3226 -2 -3251 -6z m3201 -1135
c321 -63 634 -235 870 -481 170 -176 264 -361 300 -587 18 -108 7 -363 -20
-489 -63 -297 -230 -563 -474 -754 l-38 -30 143 -71 c378 -187 592 -395 654
-638 30 -118 16 -275 -36 -400 -93 -221 -397 -504 -703 -654 -366 -179 -974
-291 -1576 -291 -163 0 -178 2 -226 24 -68 32 -150 116 -185 190 l-29 61 0
560 c0 583 9 832 55 1520 37 566 45 719 55 1125 11 444 25 658 46 722 27 83
52 100 199 136 316 77 735 101 965 57z"/>
<path d="M3020 5290 c-91 -4 -174 -8 -186 -9 -20 -1 -21 -6 -27 -285 -4 -156
-18 -503 -33 -771 -14 -268 -24 -488 -22 -490 2 -2 94 -9 206 -17 170 -12 220
-13 300 -2 361 48 651 233 785 499 64 129 98 322 77 445 -19 115 -76 216 -179
319 -190 191 -423 301 -666 313 -49 2 -164 1 -255 -2z"/>
<path d="M2705 3028 c-4 -79 -7 -345 -8 -593 l-2 -450 100 3 c463 14 980 128
1223 271 191 112 382 297 382 369 0 76 -97 163 -287 260 -239 122 -468 199
-706 238 -137 22 -180 25 -277 20 -104 -6 -325 5 -391 19 l-27 6 -7 -143z"/>
<path d="M3 6705 c0 -22 2 -30 4 -17 2 12 2 30 0 40 -3 9 -5 -1 -4 -23z"/>
<path d="M6993 6705 c0 -22 2 -30 4 -17 2 12 2 30 0 40 -3 9 -5 -1 -4 -23z"/>
<path d="M3 295 c0 -22 2 -30 4 -17 2 12 2 30 0 40 -3 9 -5 -1 -4 -23z"/>
<path d="M6993 295 c0 -22 2 -30 4 -17 2 12 2 30 0 40 -3 9 -5 -1 -4 -23z"/>
<path d="M10 240 c1 -30 42 -106 78 -144 36 -37 122 -86 152 -86 8 0 -10 12
-40 26 -73 34 -126 86 -161 159 -16 33 -29 53 -29 45z"/>
<path d="M6965 202 c-27 -66 -90 -130 -160 -163 -33 -16 -53 -29 -45 -29 33 0
117 50 156 92 22 24 49 65 59 91 23 62 15 69 -10 9z"/>
<path d="M278 3 c12 -2 30 -2 40 0 9 3 -1 5 -23 4 -22 0 -30 -2 -17 -4z"/>
<path d="M6688 3 c12 -2 30 -2 40 0 9 3 -1 5 -23 4 -22 0 -30 -2 -17 -4z"/>
</g>
</svg>
